# xmcd CD database file
#
# Track frame offsets:
#	150
#	30387
#	53555
#	78187
#	101311
#	131165
#	152116
#	176458
#
# Disc length: 2668 seconds
#
# Revision: 0
# Processed by: cddbd v1.5.2PL0 Copyright (c) Steve Scherf et al.
# Submitted via: CDex 1.70beta2
#
DISCID=530a6a08
DTITLE=Gerry Mulligan - Modern Jazz West Coast Jazz Vol. 3
DYEAR=2008
DGENRE=Jazz
TTITLE0=Bernie's Tune
TTITLE1=Mud Bug
TTITLE2=Apple Core
TTITLE3=Sweet And Lovely
TTITLE4=Broadway
TTITLE5=Nights At The Turntable
TTITLE6=Everything Happens To Me
TTITLE7=The Lady Is A tramp
EXTD=YEAR: 2008
EXTT0=
EXTT1=
EXTT2=
EXTT3=
EXTT4=
EXTT5=
EXTT6=
EXTT7=
PLAYORDER=
